<?xml version="1.0" encoding="UTF-8"?>
<svg version="1.1" xmlns="http://www.w3.org/2000/svg" width="500" height="500">
<path d="M0 0 C165 0 330 0 500 0 C500 165 500 330 500 500 C335 500 170 500 0 500 C0 335 0 170 0 0 Z " fill="#FEFEFE" transform="translate(0,0)"/>
<path d="M0 0 C3.92165157 0.67903126 5.95693547 2.12706115 9.11328125 4.5390625 C10.15484375 5.33441406 11.19640625 6.12976562 12.26953125 6.94921875 C13.38589483 7.83108436 14.50040325 8.7153023 15.61328125 9.6015625 C16.85410064 10.58341679 18.09498795 11.56518524 19.3359375 12.546875 C19.96387207 13.04477539 20.59180664 13.54267578 21.23876953 14.05566406 C23.59608814 15.92113265 25.96256931 17.77473091 28.3293457 19.62817383 C33.099198 23.36436646 37.84892973 27.1232475 42.56982422 30.92114258 C49.33992654 36.36696942 56.18128507 41.70595465 63.11499023 46.94238281 C67.02249043 49.90057787 70.78057246 52.95580735 74.48828125 56.1640625 C79.13147564 59.90397334 84.11712635 62.13104013 90.11328125 62.5390625 C95.66773461 61.12367149 100.84657574 58.4626679 106.015625 56.01757812 C114.03049497 52.38077296 121.89060896 52.37659961 130.55078125 52.4140625 C131.44087891 52.41019531 132.33097656 52.40632813 133.24804688 52.40234375 C137.55418244 52.40863467 141.68826809 52.57570875 145.953125 53.1875 C149.73549366 53.65293231 151.86830527 53.22429623 155.23828125 51.2890625 C170.38508087 43.68388619 187.11598755 44.20610104 203.11328125 48.5390625 C206.94243958 49.93961068 210.50784861 51.64203367 214.11328125 53.5390625 C215.02722656 53.9928125 215.94117188 54.4465625 216.8828125 54.9140625 C223.63847752 58.39110408 229.32694876 62.64214861 235.11328125 67.5390625 C235.67789062 67.98121094 236.2425 68.42335938 236.82421875 68.87890625 C241.16676215 72.29090463 244.62478499 76.29069576 248.11328125 80.5390625 C248.87769531 81.46589844 249.64210938 82.39273438 250.4296875 83.34765625 C268.48611609 105.7446413 281.14600082 134.20369554 286.11328125 162.5390625 C286.3141333 163.62840088 286.3141333 163.62840088 286.51904297 164.73974609 C288.84638233 177.80059659 289.40612561 190.74455461 289.42578125 203.9765625 C289.4310231 205.10627975 289.4310231 205.10627975 289.43637085 206.25881958 C289.53586655 244.88999959 278.83200356 284.72589659 251.30078125 312.9140625 C236.88490351 327.10797778 219.02605058 334.7668721 198.80078125 334.6640625 C197.95700928 334.66575439 197.1132373 334.66744629 196.24389648 334.66918945 C191.96176003 334.65389463 187.90630202 334.45002289 183.67578125 333.7265625 C178.60708009 333.0742427 174.84901633 334.99109156 170.36328125 337.21484375 C162.4934424 340.42142473 154.52550382 340.85975345 146.11328125 340.7890625 C145.19289063 340.79679687 144.2725 340.80453125 143.32421875 340.8125 C137.04077119 340.79480015 131.22275428 339.99354117 125.11328125 338.5390625 C124.32566406 339.580625 123.53804688 340.6221875 122.7265625 341.6953125 C117.13073367 349.06847654 111.48559715 356.38344037 105.61328125 363.5390625 C101.16708907 368.95775464 96.84651584 374.45243996 92.61328125 380.0390625 C87.80124555 386.38929456 82.85652516 392.60956763 77.80151367 398.76782227 C73.40924712 404.1312162 69.19714828 409.61377342 65.0390625 415.16015625 C62.75006697 417.98773896 61.96313077 418.42550502 58.39453125 418.90234375 C54.10560237 418.42749805 51.78142277 416.43803497 48.61328125 413.7265625 C47.3727265 412.70793049 46.13183164 411.68971258 44.890625 410.671875 C44.26269043 410.14883789 43.63475586 409.62580078 42.98779297 409.08691406 C40.09636805 406.69936079 37.13484966 404.40427252 34.17578125 402.1015625 C29.98103069 398.81435545 25.8106318 395.49867975 21.65820312 392.15820312 C15.72656774 387.38669832 9.7399313 382.70366522 3.67578125 378.1015625 C-2.61133658 373.32907822 -8.76513846 368.42078076 -14.86694336 363.41430664 C-19.63184165 359.51990174 -24.48208265 355.75550807 -29.38671875 352.0390625 C-35.6551816 347.28918901 -41.78748915 342.40253294 -47.8671875 337.4140625 C-52.63204868 333.51979482 -57.48217393 329.7554389 -62.38671875 326.0390625 C-68.6551816 321.28918901 -74.78748915 316.40253294 -80.8671875 311.4140625 C-85.63204927 307.51979434 -90.48218167 303.75545034 -95.38671875 300.0390625 C-101.74707496 295.21935499 -107.97332969 290.26229418 -114.14624023 285.20532227 C-118.19697066 281.89318656 -122.28799775 278.64866178 -126.44921875 275.4765625 C-131.06541616 271.95621515 -135.61613073 268.36865568 -140.13671875 264.7265625 C-145.49272231 260.41495533 -150.91430518 256.2017484 -156.38671875 252.0390625 C-157.80355796 250.95335013 -159.22022509 249.86741316 -160.63671875 248.78125 C-163.49272271 246.59313995 -166.37046106 244.43811557 -169.26171875 242.296875 C-170.63730226 241.25337293 -172.01232587 240.20913225 -173.38671875 239.1640625 C-174.02802734 238.70064453 -174.66933594 238.23722656 -175.33007812 237.75976562 C-178.29308365 235.47476357 -179.81539768 233.72221328 -181.1796875 230.21875 C-180.75063332 224.82982948 -178.12056097 222.06981078 -174.69921875 218.0390625 C-174.05863525 217.25152588 -173.41805176 216.46398926 -172.75805664 215.65258789 C-171.44286704 214.03793673 -170.1195105 212.4299036 -168.78808594 210.82861328 C-166.08964852 207.57926222 -163.45787408 204.27842551 -160.82421875 200.9765625 C-160.33985352 200.37448975 -159.85548828 199.77241699 -159.35644531 199.15209961 C-155.6418555 194.52727571 -152.03497891 189.82668804 -148.44921875 185.1015625 C-143.60680595 178.72260092 -138.62819011 172.47482848 -133.55322266 166.27978516 C-130.24095896 162.22901008 -126.99638764 158.13787482 -123.82421875 153.9765625 C-120.30387313 149.36036736 -116.71638062 144.80959339 -113.07421875 140.2890625 C-108.77999827 134.95616276 -104.58747315 129.55625169 -100.44921875 124.1015625 C-95.60690095 117.72253072 -90.62818734 111.47482511 -85.55322266 105.27978516 C-82.24095896 101.22901008 -78.99638764 97.13787482 -75.82421875 92.9765625 C-72.30387313 88.36036736 -68.71638062 83.80959339 -65.07421875 79.2890625 C-60.77999827 73.95616276 -56.58747315 68.55625169 -52.44921875 63.1015625 C-47.60751747 56.72334289 -42.62899597 50.47682405 -37.55541992 44.28198242 C-33.38551655 39.18135914 -29.34971271 33.99363968 -25.3515625 28.7578125 C-21.80185522 24.11071486 -18.19573357 19.50859251 -14.55859375 14.9296875 C-12.80169992 12.71645761 -11.08783397 10.47893314 -9.40234375 8.2109375 C-8.24992187 6.70273437 -8.24992187 6.70273437 -7.07421875 5.1640625 C-6.07455078 3.82214844 -6.07455078 3.82214844 -5.0546875 2.453125 C-2.88671875 0.5390625 -2.88671875 0.5390625 0 0 Z " fill="#020202" transform="translate(194.88671875,40.4609375)"/>
<path d="M0 0 C19.93443778 16.41982616 33.85688064 41.34700313 38.38818359 66.76318359 C38.59056641 67.82794922 38.79294922 68.89271484 39.00146484 69.98974609 C43.1712913 96.48374549 42.10045993 125.31123826 30.38818359 149.76318359 C29.92541016 150.74416016 29.46263672 151.72513672 28.98583984 152.73583984 C21.43560496 167.60624705 10.41295751 178.73501506 -5.13134766 184.73583984 C-17.11367536 188.59820934 -30.20949839 188.13833491 -41.61181641 182.76318359 C-49.5611282 178.53086035 -56.20534297 173.05161481 -62.61181641 166.76318359 C-63.28857422 166.11091797 -63.96533203 165.45865234 -64.66259766 164.78662109 C-85.63670439 143.01390108 -94.0134256 110.07537912 -93.92749023 80.70776367 C-93.92433425 78.46337012 -93.94787883 76.2203059 -93.97314453 73.97607422 C-94.03126653 60.92808679 -92.4160741 48.23913066 -87.79931641 35.95068359 C-87.53924805 35.24331055 -87.27917969 34.5359375 -87.01123047 33.80712891 C-80.24768005 15.91513123 -68.75020164 -0.10147027 -51.03369141 -8.27197266 C-33.91620762 -15.09135733 -14.41461568 -11.06095775 0 0 Z " fill="#000000" transform="translate(426.61181640625,141.23681640625)"/>
<path d="M0 0 C1.51787109 0.71929687 1.51787109 0.71929687 3.06640625 1.453125 C20.14516847 10.09939683 33.77885722 25.07249917 44 41 C44.41878418 41.64952637 44.83756836 42.29905273 45.26904297 42.96826172 C71.20958917 83.76004074 80.39161689 137.68497841 70 185 C69.82307617 185.81017578 69.64615234 186.62035156 69.46386719 187.45507812 C64.56909077 209.08001435 55.91603951 228.68342452 42 246 C41.35804688 246.84433594 40.71609375 247.68867188 40.0546875 248.55859375 C29.73496262 260.82062426 12.80507365 270.54039329 -3.25830078 272.23876953 C-24.57492292 273.44654804 -42.8065858 267.13338244 -59 253 C-60.21623047 251.98292969 -60.21623047 251.98292969 -61.45703125 250.9453125 C-83.86595519 231.67716688 -98.20671045 203.17323086 -106 175 C-106.33902344 173.824375 -106.67804688 172.64875 -107.02734375 171.4375 C-114.52023489 143.84104054 -116.77324196 111.07761014 -110.44873047 83.00195312 C-109.98660702 80.94024893 -109.58666619 78.87234899 -109.19140625 76.796875 C-103.5730724 48.83406659 -88.93984452 20.57260768 -65.04858398 4.2097168 C-45.61036275 -8.64795811 -20.89356712 -10.43481703 0 0 Z M-50 49 C-66.62811228 68.90888048 -73.61194783 93.60716753 -73.39111328 119.22680664 C-73.37502744 121.43373597 -73.39107876 123.63882839 -73.41015625 125.84570312 C-73.4565179 156.83782166 -62.59476859 188.8945672 -40.75 211.3125 C-29.05130031 222.74532015 -16.05705941 230.45501855 0.65893555 230.36352539 C14.10611782 230.01801711 25.76155943 224.97103329 35.625 215.875 C46.88893128 203.77370212 53.94265354 188.92283079 58 173 C58.45052734 171.24623047 58.45052734 171.24623047 58.91015625 169.45703125 C66.16831524 135.79942886 60.83589277 97.34393873 42.43066406 68.01660156 C31.79057648 51.82661755 17.89429181 37.78612648 -1.375 32.6875 C-20.22499593 29.1930266 -37.0082086 35.12290765 -50 49 Z " fill="#F9F9F9" transform="translate(406,98)"/>
<path d="M0 0 C0 3 0 3 -2.0546875 5.20703125 C-2.98539062 6.06683594 -3.91609375 6.92664063 -4.875 7.8125 C-15.67782453 18.22281315 -22.84403736 30.42006912 -29 44 C-29.53367187 45.1446875 -30.06734375 46.289375 -30.6171875 47.46875 C-38.79349655 66.27849725 -42.12004595 86.62906384 -43 107 C-43.04382813 107.83853516 -43.08765625 108.67707031 -43.1328125 109.54101562 C-44.20695357 132.2232945 -41.05789844 156.41193775 -34 178 C-33.72704102 178.85287598 -33.45408203 179.70575195 -33.17285156 180.58447266 C-21.25286542 217.22031957 -0.84821819 247.85633562 33 267 C28.70705293 271.79445958 23.99557914 273.09423223 18 275 C16.783125 275.4125 15.56625 275.825 14.3125 276.25 C-3.60267434 280.21096147 -22.11708155 274.51515781 -37.34521484 265.08251953 C-41.90830928 262.09745598 -45.98863878 258.68108447 -50 255 C-50.90234375 254.17886719 -51.8046875 253.35773438 -52.734375 252.51171875 C-68.74248979 237.24974491 -79.31900688 218.3420219 -87.24902344 197.88769531 C-87.98116496 196.04734478 -88.77508722 194.23195278 -89.5703125 192.41796875 C-91.93267823 186.77023647 -93.4235974 180.90676156 -95 175 C-95.26941406 174.01386719 -95.53882813 173.02773438 -95.81640625 172.01171875 C-107.1954848 127.03159149 -102.30760702 77.25218652 -79.13476562 36.86523438 C-76.50865572 32.54865097 -73.34565894 28.76732256 -70 25 C-69.43796875 24.30777344 -68.8759375 23.61554688 -68.296875 22.90234375 C-51.9165774 3.03931933 -25.13302106 -7.18086316 0 0 Z " fill="#FAFAFA" transform="translate(279,107)"/>
<path d="M0 0 C0.8859082 -0.00547852 1.77181641 -0.01095703 2.68457031 -0.01660156 C9.05514471 0.05514471 9.05514471 0.05514471 11.3125 2.3125 C10.755625 2.725 10.19875 3.1375 9.625 3.5625 C-17.82578379 24.33606611 -30.45553396 57.63116151 -35.76953125 90.72265625 C-36.92639598 99.1150926 -37.08227689 107.41818418 -37.0625 115.875 C-37.06262085 116.67431946 -37.0627417 117.47363892 -37.06286621 118.29718018 C-37.01886052 138.9138444 -35.05504673 159.60449446 -28.6875 179.3125 C-28.27494996 180.69628958 -27.86355715 182.08042453 -27.453125 183.46484375 C-17.22944282 216.94231877 3.03357637 250.76071302 34.57397461 267.859375 C37.4692284 269.3812701 40.38125095 270.86106548 43.3125 272.3125 C36.90482213 278.72017787 24.9389493 278.78471409 16.375 278.875 C-1.88134935 278.73076073 -17.89252009 271.08932544 -31.6875 259.3125 C-32.42484375 258.70792969 -33.1621875 258.10335938 -33.921875 257.48046875 C-39.97286455 252.35799311 -44.89681361 246.61383837 -49.6875 240.3125 C-50.40679687 239.37019531 -51.12609375 238.42789063 -51.8671875 237.45703125 C-66.61915438 217.16651452 -76.97202712 192.94678075 -81.6875 168.3125 C-81.86796875 167.3740625 -82.0484375 166.435625 -82.234375 165.46875 C-86.86373956 140.4451578 -87.46881947 115.35795492 -82.6875 90.3125 C-82.43806641 88.99910645 -82.43806641 88.99910645 -82.18359375 87.65917969 C-76.55983977 59.21756464 -63.86734967 29.85787397 -39.82421875 12.2109375 C-37.15758193 10.47743915 -34.46123025 8.86766366 -31.6875 7.3125 C-31.02363281 6.91417969 -30.35976563 6.51585938 -29.67578125 6.10546875 C-20.46153363 0.94780813 -10.36107323 0.04808781 0 0 Z " fill="#FAFAFA" transform="translate(325.6875,97.6875)"/>
<path d="M0 0 C4.00175332 0.93544115 6.71398263 3.12130217 9.82470703 5.71630859 C10.50670166 6.25586182 11.18869629 6.79541504 11.89135742 7.35131836 C14.03369178 9.05530836 16.14917794 10.78866699 18.26220703 12.52880859 C19.5921139 13.60794776 20.92282739 14.68609373 22.25439453 15.76318359 C24.23715416 17.37044846 26.21716843 18.98063881 28.19018555 20.59985352 C32.96928398 24.51679445 37.83688771 28.29789746 42.76220703 32.02880859 C48.43139938 36.32461366 54.00871578 40.71007648 59.51220703 45.21630859 C67.43617788 51.70306972 75.46681237 58.02983001 83.73486328 64.07568359 C84.57549316 64.6939502 84.57549316 64.6939502 85.43310547 65.32470703 C86.98248752 66.46116632 88.53817331 67.58901702 90.09423828 68.71630859 C90.80966797 69.31443359 91.52509766 69.91255859 92.26220703 70.52880859 C92.26220703 71.18880859 92.26220703 71.84880859 92.26220703 72.52880859 C86.81958229 74.26794615 82.3620769 72.81113878 77.26220703 70.52880859 C72.63594107 67.49817296 68.49899086 63.79197145 64.29199219 60.21679688 C60.89295556 57.39012629 57.35550032 54.75008218 53.82470703 52.09130859 C48.21710722 47.83827516 42.70364142 43.49231721 37.26220703 39.02880859 C29.6769129 32.8073217 21.90637937 26.84978894 14.09033203 20.92236328 C10.97667545 18.54886545 7.89978425 16.1287718 4.82861328 13.70068359 C2.66085568 12.0789198 1.21324258 11.51996295 -1.48388672 11.03271484 C-6.37298937 11.77811225 -7.94757294 14.63672662 -10.80029297 18.46630859 C-11.63947266 19.54525391 -11.63947266 19.54525391 -12.49560547 20.64599609 C-14.26213611 22.92628285 -16.00141342 25.22550771 -17.73779297 27.52880859 C-18.82911662 28.95805316 -19.92153915 30.38645943 -21.01513672 31.81396484 C-22.63200163 33.92665202 -24.24681829 36.04070833 -25.85449219 38.16040039 C-30.14126912 43.80188145 -34.58022948 49.30507648 -39.06933594 54.78613281 C-43.24322746 59.89177567 -47.28284678 65.08458874 -51.28466797 70.32568359 C-57.11975553 77.96485619 -63.09647182 85.49569791 -69.12084961 92.98608398 C-73.89087277 98.91758554 -78.57379144 104.90298313 -83.17529297 110.96630859 C-88.01772313 117.34525817 -92.99632088 123.59304172 -98.07128906 129.78808594 C-101.38355276 133.83886101 -104.62812408 137.92999628 -107.80029297 142.09130859 C-111.32063859 146.70750374 -114.9081311 151.25827771 -118.55029297 155.77880859 C-122.84451345 161.11170833 -127.03703857 166.5116194 -131.17529297 171.96630859 C-136.01761077 178.34534038 -140.99632438 184.59304599 -146.07128906 190.78808594 C-149.38355052 194.83885827 -152.62820118 198.92993909 -155.80029297 203.09130859 C-158.90098318 207.1584477 -162.0432762 211.18162556 -165.25048828 215.1652832 C-166.778458 217.0641731 -168.29793859 218.96958371 -169.81591797 220.87646484 C-171.69728638 223.23938881 -173.60466018 225.57661771 -175.53466797 227.89990234 C-176.3740502 228.94219473 -177.21263862 229.98512706 -178.05029297 231.02880859 C-179.15824219 232.37458984 -179.15824219 232.37458984 -180.28857422 233.74755859 C-181.99129021 236.52631807 -181.99129021 236.52631807 -181.85498047 240.04443359 C-180.45050534 244.42482454 -178.18045496 246.23885499 -174.55029297 248.77880859 C-173.26474677 249.73140758 -171.97960145 250.68454775 -170.69482422 251.63818359 C-169.70603271 252.35651367 -169.70603271 252.35651367 -168.69726562 253.08935547 C-165.65095491 255.32721343 -162.69822317 257.67927414 -159.73779297 260.02880859 C-158.57161852 260.94610137 -157.40495015 261.86276656 -156.23779297 262.77880859 C-144.5711263 271.94547526 -132.90445964 281.11214193 -121.23779297 290.27880859 C-120.66037354 290.73247803 -120.0829541 291.18614746 -119.48803711 291.65356445 C-118.32048887 292.57095868 -117.15300848 293.48843926 -115.9855957 294.40600586 C-113.08296506 296.68725104 -110.17920023 298.96702073 -107.27294922 301.24365234 C-101.92084199 305.43881202 -96.58136971 309.64709439 -91.28271484 313.90966797 C-85.35107946 318.68117277 -79.36444302 323.36420587 -73.30029297 327.96630859 C-67.01317513 332.73879288 -60.85937326 337.64709033 -54.75756836 342.65356445 C-49.99267006 346.54796936 -45.14242907 350.31236302 -40.23779297 354.02880859 C-33.96933012 358.77868208 -27.83702257 363.66533815 -21.75732422 368.65380859 C-16.99246304 372.54807628 -12.14233778 376.31243219 -7.23779297 380.02880859 C-0.96933012 384.77868208 5.16297743 389.66533815 11.24267578 394.65380859 C16.69225679 399.10769013 22.26579998 403.38085976 27.87597656 407.62963867 C33.74597347 412.09216579 39.48010167 416.70787485 45.17431641 421.39208984 C45.79886719 421.90513672 46.42341797 422.41818359 47.06689453 422.94677734 C47.6132959 423.39819092 48.15969727 423.84960449 48.72265625 424.31469727 C51.23489228 426.29588182 52.93990033 427.47976192 56.13720703 427.96630859 C62.27679569 427.10676618 66.06987836 420.45228952 69.76220703 415.77880859 C70.27920166 415.12904053 70.79619629 414.47927246 71.32885742 413.80981445 C75.73964949 408.24313637 80.04007518 402.59458711 84.33447266 396.93798828 C88.56806789 391.38296766 92.94641052 385.9610132 97.37597656 380.56176758 C101.94692409 374.96853475 106.34243281 369.25238382 110.71020508 363.49975586 C114.80861832 358.1045124 118.98697064 352.78567026 123.26220703 347.52880859 C126.23220703 348.18880859 129.20220703 348.84880859 132.26220703 349.52880859 C130.60169542 352.84983181 129.13845862 355.0849761 126.82470703 357.90380859 C123.49620404 362.00135199 120.20581147 366.12377254 116.94970703 370.27880859 C116.00570122 371.48193721 115.06169075 372.68506217 114.11767578 373.88818359 C113.64507324 374.49082031 113.1724707 375.09345703 112.68554688 375.71435547 C110.37959825 378.65394555 108.07078942 381.59128681 105.76220703 384.52880859 C104.84552598 385.69546396 103.92885933 386.86213064 103.01220703 388.02880859 C97.51220703 395.02880859 92.01220703 402.02880859 86.51220703 409.02880859 C86.05797363 409.60703369 85.60374023 410.18525879 85.13574219 410.78100586 C84.22439004 411.9406877 83.31261019 413.10003356 82.40039062 414.2590332 C80.02368772 417.27986936 77.65600751 420.30721683 75.30126953 423.34521484 C74.5694043 424.2859082 74.5694043 424.2859082 73.82275391 425.24560547 C72.8967798 426.4361436 71.97340297 427.62870859 71.05322266 428.82373047 C64.03611454 437.82741714 64.03611454 437.82741714 60.22705078 439.33349609 C52.80144599 439.59103152 48.37224986 435.4656059 42.89208984 430.88037109 C40.69745939 429.06049779 38.44578254 427.3189704 36.19335938 425.5715332 C31.35664122 421.81227495 26.57653199 417.98216065 21.80273438 414.14355469 C15.87136595 409.37501581 9.88721917 404.69219288 3.82470703 400.09130859 C-2.55343035 395.24949499 -8.80002718 390.27108928 -14.99487305 385.19750977 C-20.10054875 381.02347589 -25.29348223 376.98382418 -30.53466797 372.98193359 C-39.50647185 366.1289321 -48.32200148 359.07375794 -57.12963867 352.01196289 C-63.06223265 347.25928143 -69.03733728 342.5620093 -75.02148438 337.87451172 C-76.7136576 336.54773237 -78.40382673 335.21844736 -80.09326172 333.88818359 C-85.83701772 329.366574 -91.59282602 324.86146284 -97.36865234 320.38085938 C-104.39977155 314.9259373 -111.3946051 309.43176247 -118.33300781 303.859375 C-124.18890609 299.15802832 -130.09225833 294.51862515 -136.00390625 289.88769531 C-138.91746124 287.60427556 -141.8274349 285.31630057 -144.73779297 283.02880859 C-145.90444269 282.11212037 -147.07110936 281.19545369 -148.23779297 280.27880859 C-150.5711263 278.44547526 -152.90445964 276.61214193 -155.23779297 274.77880859 C-156.10452637 274.09782104 -156.10452637 274.09782104 -156.98876953 273.40307617 C-158.1522262 272.48890845 -159.31563786 271.57468344 -160.47900391 270.66040039 C-163.44441196 268.33002159 -166.41066154 266.00072744 -169.37841797 263.67333984 C-172.29820216 261.38345933 -175.21417149 259.08878307 -178.12890625 256.79248047 C-179.65984357 255.59003258 -181.19671349 254.39514936 -182.73388672 253.20068359 C-183.62205078 252.50458984 -184.51021484 251.80849609 -185.42529297 251.09130859 C-186.19228516 250.49447266 -186.95927734 249.89763672 -187.74951172 249.28271484 C-190.90794123 246.4965953 -192.56124776 244.52923142 -193.30029297 240.34130859 C-191.99883238 231.52029795 -184.48795386 224.66249788 -178.97583008 217.96337891 C-174.903471 213.00751914 -170.9784951 207.95951673 -167.11279297 202.84130859 C-162.71138213 197.02284202 -158.1630594 191.38352658 -153.41137695 185.84838867 C-150.57474323 182.53924459 -147.88217486 179.17706444 -145.30810547 175.66162109 C-143.25999106 172.87985376 -141.15716525 170.141125 -139.05029297 167.40380859 C-138.62409668 166.85007568 -138.19790039 166.29634277 -137.75878906 165.72583008 C-133.25287297 159.88349834 -128.69127756 154.08533106 -124.12451172 148.29052734 C-122.75361614 146.54891071 -121.38579306 144.80492975 -120.01904297 143.06005859 C-115.82571316 137.70882966 -111.61836541 132.37096605 -107.35693359 127.07373047 C-102.58542831 121.14209449 -97.90241164 115.15544727 -93.30029297 109.09130859 C-88.45786281 102.71235902 -83.47926506 96.46457547 -78.40429688 90.26953125 C-75.09203318 86.21875617 -71.84746186 82.12762091 -68.67529297 77.96630859 C-65.15494735 73.35011345 -61.56745483 68.79933948 -57.92529297 64.27880859 C-53.63107292 58.9459094 -49.43853336 53.54600769 -45.30029297 48.09130859 C-40.53337081 41.81129235 -35.63415495 35.66142684 -30.62841797 29.57055664 C-26.00767639 23.92399365 -21.5794427 18.14152362 -17.22607422 12.28662109 C-15.76191936 10.33944608 -14.26241578 8.42888687 -12.73779297 6.52880859 C-12.0472583 5.62630371 -12.0472583 5.62630371 -11.34277344 4.70556641 C-7.96259942 0.73667778 -5.23307128 -0.38184024 0 0 Z " fill="#E1E1E1" transform="translate(196.73779296875,30.47119140625)"/>
<path d="M0 0 C2.74783385 1.40322814 5.04879302 3.2466943 7.4375 5.1875 C8.12561768 5.72487793 8.81373535 6.26225586 9.52270508 6.81591797 C11.69812398 8.52452257 13.85118047 10.25809494 16 12 C16.68900391 12.5554248 17.37800781 13.11084961 18.08789062 13.68310547 C21.46709417 16.41042175 24.8329007 19.15350513 28.19140625 21.90625 C32.6523376 25.5494748 37.21497794 29.04879327 41.79296875 32.54296875 C45.19854155 35.14402605 48.57038089 37.7869382 51.9375 40.4375 C52.51540283 40.89237793 53.09330566 41.34725586 53.6887207 41.81591797 C54.86326537 42.74086169 56.03766232 43.66599303 57.21191406 44.59130859 C59.6431959 46.50672315 62.07607633 48.4200985 64.50952148 50.33276367 C65.69687465 51.26608596 66.88389505 52.19983177 68.07055664 53.1340332 C72.19435863 56.37774471 76.34618132 59.5830978 80.5234375 62.7578125 C81.01070313 63.16773438 81.49796875 63.57765625 82 64 C82 64.33 82 64.66 82 65 C75.77878659 64.65173869 72.76014521 62.77866581 68.125 58.75 C66.80502151 57.6477773 65.48334205 56.5475891 64.16015625 55.44921875 C63.47840332 54.87864746 62.79665039 54.30807617 62.09423828 53.72021484 C58.66050446 50.89973355 55.10991615 48.23749407 51.5625 45.5625 C45.95520722 41.30904236 40.4414516 36.96352274 35 32.5 C27.41470587 26.2785131 19.64417233 20.32098035 11.828125 14.39355469 C8.71446842 12.02005685 5.63757722 9.5999632 2.56640625 7.171875 C0.39864865 5.55011121 -1.04896445 4.99115436 -3.74609375 4.50390625 C-8.6351964 5.24930365 -10.20977997 8.10791803 -13.0625 11.9375 C-13.90167969 13.01644531 -13.90167969 13.01644531 -14.7578125 14.1171875 C-16.52434314 16.39747426 -18.26362045 18.69669911 -20 21 C-21.09132365 22.42924457 -22.18374618 23.85765084 -23.27734375 25.28515625 C-24.89420866 27.39784343 -26.50902532 29.51189974 -28.11669922 31.6315918 C-32.40347615 37.27307286 -36.84243651 42.77626789 -41.33154297 48.25732422 C-45.50543449 53.36296708 -49.54505381 58.55578015 -53.546875 63.796875 C-59.38196256 71.4360476 -65.35867885 78.96688931 -71.38305664 86.45727539 C-76.1530798 92.38877694 -80.83599848 98.37417453 -85.4375 104.4375 C-90.27993016 110.81644958 -95.25852791 117.06423312 -100.33349609 123.25927734 C-103.64575979 127.31005242 -106.89033111 131.40118768 -110.0625 135.5625 C-113.58284562 140.17869514 -117.17033813 144.72946911 -120.8125 149.25 C-125.10672048 154.58289974 -129.2992456 159.98281081 -133.4375 165.4375 C-138.2798178 171.81653178 -143.25853141 178.06423739 -148.33349609 184.25927734 C-151.64575755 188.31004968 -154.89040821 192.4011305 -158.0625 196.5625 C-161.16319021 200.6296391 -164.30548323 204.65281697 -167.51269531 208.63647461 C-169.04066503 210.53536451 -170.56014562 212.44077511 -172.078125 214.34765625 C-173.95949341 216.71058022 -175.86686721 219.04780912 -177.796875 221.37109375 C-178.63625723 222.41338613 -179.47484565 223.45631847 -180.3125 224.5 C-181.05113281 225.3971875 -181.78976563 226.294375 -182.55078125 227.21875 C-184.25349724 229.99750948 -184.25349724 229.99750948 -184.1171875 233.515625 C-182.71271238 237.89601595 -180.44266199 239.7100464 -176.8125 242.25 C-175.5269538 243.20259898 -174.24180848 244.15573915 -172.95703125 245.109375 C-171.96823975 245.82770508 -171.96823975 245.82770508 -170.95947266 246.56054688 C-167.91316194 248.79840483 -164.9604302 251.15046555 -162 253.5 C-160.83382555 254.41729278 -159.66715718 255.33395796 -158.5 256.25 C-146.83333333 265.41666667 -135.16666667 274.58333333 -123.5 283.75 C-122.92258057 284.20366943 -122.34516113 284.65733887 -121.75024414 285.12475586 C-120.5826959 286.04215009 -119.41521551 286.95963067 -118.24780273 287.87719727 C-115.3451721 290.15844245 -112.44140726 292.43821214 -109.53515625 294.71484375 C-104.18304902 298.91000342 -98.84357675 303.1182858 -93.54492188 307.38085938 C-87.61328649 312.15236418 -81.62665005 316.83539728 -75.5625 321.4375 C-69.27538217 326.20998428 -63.12158029 331.11828174 -57.01977539 336.12475586 C-52.2548771 340.01916076 -47.4046361 343.78355443 -42.5 347.5 C-36.23153715 352.24987349 -30.0992296 357.13652956 -24.01953125 362.125 C-19.25467007 366.01926768 -14.40454482 369.7836236 -9.5 373.5 C-3.23153715 378.24987349 2.9007704 383.13652956 8.98046875 388.125 C14.43004976 392.57888153 20.00359295 396.85205116 25.61376953 401.10083008 C31.48376644 405.56335719 37.21789464 410.17906625 42.91210938 414.86328125 C43.53666016 415.37632812 44.16121094 415.889375 44.8046875 416.41796875 C45.35108887 416.86938232 45.89749023 417.3207959 46.46044922 417.78588867 C48.97268525 419.76707322 50.6776933 420.95095333 53.875 421.4375 C60.01458866 420.57795759 63.80767133 413.92348092 67.5 409.25 C68.01699463 408.60023193 68.53398926 407.95046387 69.06665039 407.28100586 C73.47744246 401.71432778 77.77786814 396.06577852 82.07226562 390.40917969 C86.30586086 384.85415906 90.68420349 379.43220461 95.11376953 374.03295898 C99.68471706 368.43972615 104.08022578 362.72357523 108.44799805 356.97094727 C112.54641129 351.5757038 116.7247636 346.25686167 121 341 C122.98 341.33 124.96 341.66 127 342 C125.96025981 344.74113323 125.31409799 345.82556057 122.70703125 347.2734375 C119.41856592 349.37084252 117.6876288 351.67614222 115.375 354.8125 C114.49693993 355.98761192 113.61800311 357.16206913 112.73828125 358.3359375 C112.28791504 358.94147461 111.83754883 359.54701172 111.37353516 360.17089844 C109.15090908 363.13071261 106.85695165 366.03323954 104.5625 368.9375 C103.63662204 370.1132051 102.71084128 371.28898674 101.78515625 372.46484375 C101.32512207 373.04862793 100.86508789 373.63241211 100.39111328 374.23388672 C98.09125763 377.15371048 95.79584055 380.07701893 93.5 383 C92.5833549 384.16668361 91.66668823 385.33335027 90.75 386.5 C90.069375 387.36625 90.069375 387.36625 89.375 388.25 C88 390 86.625 391.75 85.25 393.5 C84.79584717 394.07806396 84.34169434 394.65612793 83.8737793 395.25170898 C82.96138308 396.41283735 82.04878693 397.57380864 81.13598633 398.73461914 C78.77727836 401.73473385 76.42260075 404.73788739 74.07421875 407.74609375 C60.97271801 424.51364099 60.97271801 424.51364099 58 426 C52.47683036 426.6758885 49.74566911 425.65216619 45.51000977 422.39477539 C44.86733154 421.87262451 44.22465332 421.35047363 43.5625 420.8125 C42.87148193 420.27294678 42.18046387 419.73339355 41.46850586 419.17749023 C39.29582334 417.47127879 37.14547589 415.74026283 35 414 C34.33226562 413.46052734 33.66453125 412.92105469 32.9765625 412.36523438 C30.33533976 410.22772308 27.69878461 408.08481386 25.07250977 405.92895508 C20.29285158 402.01250886 15.42542253 398.23098932 10.5 394.5 C4.14037413 389.68102203 -2.08461948 384.72403885 -8.25732422 379.66845703 C-13.36156374 375.49571274 -18.55257054 371.45679264 -23.79296875 367.45703125 C-28.98595822 363.49080767 -34.10620961 359.43119905 -39.23828125 355.38671875 C-40.97989788 354.01582318 -42.72387885 352.64800009 -44.46875 351.28125 C-49.81997893 347.08792019 -55.15784254 342.88057244 -60.45507812 338.61914062 C-66.38671411 333.84763534 -72.37336132 329.16461867 -78.4375 324.5625 C-84.81563738 319.7206864 -91.06223421 314.74228069 -97.25708008 309.66870117 C-102.36135245 305.49581456 -107.55247965 301.45686201 -112.79296875 297.45703125 C-117.98430911 293.4920672 -123.10329566 289.43412666 -128.23388672 285.39111328 C-130.57164989 283.54972891 -132.91169601 281.71126001 -135.25195312 279.87304688 C-137.00287577 278.49774115 -138.75339042 277.12191723 -140.50390625 275.74609375 C-142.82280124 273.92396622 -145.14322515 272.10381206 -147.46484375 270.28515625 C-154.12821687 265.06251245 -160.7599583 259.80296284 -167.36352539 254.50488281 C-172.44706039 250.43059372 -177.56373916 246.39975526 -182.69726562 242.38867188 C-188.30153778 238.00357471 -188.30153778 238.00357471 -188.8125 233.875 C-188.72207099 225.90594384 -182.68130158 220.72847408 -177.73632812 215.04589844 C-174.86514478 211.6628112 -172.22562681 208.10995683 -169.5625 204.5625 C-164.72440905 198.18165046 -159.74216193 191.93762078 -154.66870117 185.74291992 C-150.4946673 180.63724422 -146.45501559 175.44431074 -142.453125 170.203125 C-135.60012351 161.23132112 -128.54494935 152.41579149 -121.4831543 143.6081543 C-116.73505738 137.68128303 -112.04200303 131.71215367 -107.35888672 125.73388672 C-105.07546697 122.82033173 -102.78749197 119.91035807 -100.5 117 C-99.58331177 115.83335027 -98.6666451 114.66668361 -97.75 113.5 C-77.58333333 87.83333333 -57.41666667 62.16666667 -37.25 36.5 C-36.7960083 35.92217773 -36.3420166 35.34435547 -35.87426758 34.74902344 C-34.96009985 33.58556677 -34.04587484 32.42215511 -33.1315918 31.25878906 C-30.801213 28.29338101 -28.47191885 25.32713143 -26.14453125 22.359375 C-23.85586878 19.44125186 -21.56298356 16.52648712 -19.26806641 13.61328125 C-18.05362989 12.06822994 -16.84503599 10.51859162 -15.63671875 8.96875 C-14.93160156 8.0715625 -14.22648438 7.174375 -13.5 6.25 C-12.8915625 5.47140625 -12.283125 4.6928125 -11.65625 3.890625 C-8.05413764 -0.22122024 -5.27785099 -0.62766584 0 0 Z " fill="#F3F3F3" transform="translate(199,37)"/>
<path d="M0 0 C2.8125 2.4375 2.8125 2.4375 5 5 C5.5775 5.66 6.155 6.32 6.75 7 C9.79328479 11.86925566 9.74651484 18.43507119 9 24 C6.73717683 29.61804373 2.94869011 33.63489072 -2 37 C-8.10311263 39.33027937 -13.323983 39.89200567 -19.5625 37.8125 C-26.08502993 34.37334786 -29.60084866 31.24501368 -32.3046875 24.39453125 C-33.9047474 18.88421259 -33.75234261 14.0835269 -31.4375 8.8125 C-28.34935855 3.36475752 -24.30553404 -0.09425449 -18.5 -2.375 C-11.65201264 -3.59785489 -6.15803762 -3.26700101 0 0 Z " fill="#FBFBFB" transform="translate(128,245)"/>
</svg>
